:FULLY-SPECIFIED
:FORCE-ALL-JOINTS-BE-3DOF
:DEGREES
421
root 10.0923 16.7544 23.3715 8.16413 0.340079 -4.72743
lfemur -44.1295 2.46703 -18.6683
ltibia 34.4534 0 0
lfoot 1.12919 7.77966 0
ltoes 1.92085 0 0
rfemur 24.8603 3.02752 28.3196
rtibia 7.31528e-14 0 0
rfoot 9.41801 3.91051 0
rtoes -22.3075 0 0
lowerback -8.77415 2.76314 1.22441
upperback -1.79946 3.49013 2.17307
thorax 2.98216 1.74173 1.95036
lowerneck -19.4868 -6.95681 -14.6684
upperneck 21.9234 -9.00444 14.2777
head 11.7761 -3.65347 6.34443
lclavicle -6.32539e-15 -5.96354e-15 0
lhumerus -51.0294 -7.1516 92.5795
lradius 22.4522 0 0
lwrist 0.884618 0 0
lhand -7.18723 -22.5429 0
lfingers 7.12502 0 0
lthumb 18.6907 6.57915 0
rclavicle -6.32539e-15 -5.96354e-15 0
rhumerus -36.1808 10.0838 -88.6768
rradius 33.0314 0 0
rwrist -14.1029 0 0
rhand -29.0392 -24.6137 0
rfingers 7.12502 0 0
rthumb -2.3896 -54.58 0
422
root 10.1263 16.7844 23.5327 8.12162 0.165632 -4.23112
lfemur -43.4201 2.38032 -19.2908
ltibia 34.5131 -0 0
lfoot 0.468643 7.76081 0.000543321
ltoes 2.42704 -0 0
rfemur 22.7183 2.65716 27.2694
rtibia 4.59593 -0 0
rfoot 10.1191 4.35827 0.013703
rtoes -21.0949 0 0
lowerback -8.62548 2.7466 0.875041
upperback -1.8847 3.50899 2.02123
thorax 2.79934 1.75094 1.9791
lowerneck -19.4231 -6.9167 -14.6912
upperneck 21.9433 -8.92647 14.1912
head 11.7532 -3.6326 6.32913
lclavicle -1.25117e-14 -4.53892e-15 0
lhumerus -50.3641 -6.61463 92.0447
lradius 22.0383 -0 0
lwrist 0.0619033 0 0
lhand -7.18111 -22.504 1.03905e-05
lfingers 7.12502 0 0
lthumb 18.6966 6.61748 9.86796e-06
rclavicle -1.25117e-14 -4.53892e-15 0
rhumerus -36.8246 9.82252 -88.7298
rradius 32.6929 -0 0
rwrist -13.9436 0 0
rhand -28.5806 -25.4683 -0.0171103
rfingers 7.12502 0 0
rthumb -1.94668 -55.4368 -0.0165684
423
root 10.1603 16.8144 23.6938 8.07761 -0.00844091 -3.73468
lfemur -42.7098 2.30133 -19.9143
ltibia 34.5727 -0 0
lfoot -0.191903 7.74196 0.000869342
ltoes 2.93323 -0 0
rfemur 20.5841 2.24793 26.2341
rtibia 9.19187 -0 0
rfoot 10.8202 4.80616 0.021926
rtoes -19.8823 0 0
lowerback -8.47671 2.73097 0.525635
upperback -1.96998 3.52763 1.86936
thorax 2.61651 1.76024 2.00782
lowerneck -19.3594 -6.87657 -14.714
upperneck 21.9631 -8.84847 14.1047
head 11.7304 -3.61174 6.31382
lclavicle -1.86979e-14 -3.11429e-15 0
lhumerus -49.7046 -6.07156 91.5167
lradius 21.6244 -0 0
lwrist -0.760811 0 0
lhand -7.17499 -22.4651 1.66248e-05
lfingers 7.12502 0 0
lthumb 18.7025 6.65581 1.57887e-05
rclavicle -1.86979e-14 -3.11429e-15 0
rhumerus -37.4676 9.56066 -88.7798
rradius 32.3543 -0 0
rwrist -13.7842 0 0
rhand -28.1218 -26.323 -0.0273785
rfingers 7.12502 0 0
rthumb -1.50356 -56.2937 -0.0265113
424
root 10.1943 16.8444 23.855 8.03208 -0.182126 -3.2381
lfemur -41.9988 2.23006 -20.5387
ltibia 34.6324 -0 0
lfoot -0.85245 7.72311 0.000978021
ltoes 3.43942 -0 0
rfemur 18.4582 1.80053 25.215
rtibia 13.7878 -0 0
rfoot 11.5215 5.25411 0.0246671
rtoes -18.6698 0 0
lowerback -8.32785 2.71624 0.176194
upperback -2.05532 3.54604 1.71746
thorax 2.4337 1.76964 2.0365
lowerneck -19.2958 -6.83641 -14.7368
upperneck 21.9827 -8.77044 14.0182
head 11.7075 -3.59088 6.29851
lclavicle -2.48842e-14 -1.68967e-15 0
lhumerus -49.0508 -5.5225 90.9955
lradius 21.2105 -0 0
lwrist -1.58353 0 0
lhand -7.16887 -22.4262 1.87029e-05
lfingers 7.12502 0 0
lthumb 18.7084 6.69415 1.77623e-05
rclavicle -2.48842e-14 -1.68967e-15 0
rhumerus -38.11 9.29828 -88.8267
rradius 32.0158 -0 0
rwrist -13.6249 0 0
rhand -27.6629 -27.1777 -0.0308015
rfingers 7.12502 0 0
rthumb -1.06034 -57.1506 -0.0298259
425
root 10.2282 16.8744 24.0161 7.98506 -0.355409 -2.74138
lfemur -41.2871 2.16655 -21.1639
ltibia 34.6921 -0 0
lfoot -1.513 7.70426 0.000869342
ltoes 3.94562 -0 0
rfemur 16.3411 1.31574 24.2135
rtibia 18.3837 -0 0
rfoot 12.2227 5.70207 0.021926
rtoes -17.4572 0 0
lowerback -8.17891 2.70242 -0.17328
upperback -2.14071 3.56423 1.56552
thorax 2.25088 1.77912 2.06516
lowerneck -19.2322 -6.79623 -14.7595
upperneck 22.0022 -8.69238 13.9318
head 11.6846 -3.57003 6.28318
lclavicle -3.10705e-14 -2.65047e-16 0
lhumerus -48.4026 -4.9676 90.4812
lradius 20.7965 -0 0
lwrist -2.40624 0 0
lhand -7.16274 -22.3873 1.66248e-05
lfingers 7.12502 0 0
lthumb 18.7143 6.73248 1.57887e-05
rclavicle -3.10705e-14 -2.65047e-16 0
rhumerus -38.7516 9.03539 -88.8707
rradius 31.6773 -0 0
rwrist -13.4656 0 0
rhand -27.204 -28.0324 -0.0273785
rfingers 7.12502 0 0
rthumb -0.617115 -58.0076 -0.0265113
426
root 10.2622 16.9044 24.1773 7.93653 -0.528278 -2.24451
lfemur -40.5747 2.11081 -21.7898
ltibia 34.7517 -0 0
lfoot -2.17354 7.68541 0.000543321
ltoes 4.45181 -0 0
rfemur 14.2331 0.794368 23.2307
rtibia 22.9797 -0 0
rfoot 12.9238 6.14996 0.013703
rtoes -16.2446 0 0
lowerback -8.02989 2.68951 -0.522785
upperback -2.22615 3.58219 1.41356
thorax 2.06808 1.7887 2.09379
lowerneck -19.1686 -6.75602 -14.7821
upperneck 22.0216 -8.6143 13.8454
head 11.6617 -3.54918 6.26785
lclavicle -3.72567e-14 1.15958e-15 0
lhumerus -47.76 -4.40696 89.9735
lradius 20.3826 -0 0
lwrist -3.22896 0 0
lhand -7.15662 -22.3484 1.03905e-05
lfingers 7.12502 0 0
lthumb 18.7202 6.77081 9.86796e-06
rclavicle -3.72567e-14 1.15958e-15 0
rhumerus -39.3926 8.77203 -88.9116
rradius 31.3387 -0 0
rwrist -13.3062 0 0
rhand -26.7452 -28.8871 -0.0171103
rfingers 7.12502 0 0
rthumb -0.173994 -58.8645 -0.0165684
427
root 10.2962 16.9344 24.3384 7.8865 -0.70072 -1.74747
lfemur -39.8618 2.06285 -22.4164
ltibia 34.8114 0 0
lfoot -2.83409 7.66656 0
ltoes 4.958 0 0
rfemur 12.1345 0.237285 22.2678
rtibia 27.5756 0 0
rfoot 13.6249 6.59772 0
rtoes -15.032 0 0
lowerback -7.88079 2.67751 -0.872319
upperback -2.31164 3.59992 1.26157
thorax 1.88527 1.79837 2.12238
lowerneck -19.105 -6.71579 -14.8047
upperneck 22.0409 -8.53618 13.7591
head 11.6388 -3.52834 6.25251
lclavicle -4.3443e-14 2.5842e-15 0
lhumerus -47.1228 -3.8407 89.4726
lradius 19.9687 0 0
lwrist -4.05167 0 0
lhand -7.1505 -22.3095 0
lfingers 7.12502 0 0
lthumb 18.7261 6.80914 0
rclavicle -4.3443e-14 2.5842e-15 0
rhumerus -40.0329 8.50823 -88.9495
rradius 31.0002 0 0
rwrist -13.1469 0 0
rhand -26.2866 -29.7417 0
rfingers 7.12502 0 0
rthumb 0.268929 -59.7213 0
428
root 10.3232 16.9658 24.4816 7.87851 -0.935687 -1.46772
lfemur -39.0774 2.32684 -22.8735
ltibia 34.5218 -0 0
lfoot -3.30207 7.56849 0.00200273
ltoes 4.75034 -0 0
rfemur 10.5125 0.154589 21.7289
rtibia 30.6123 -0 0
rfoot 14.519 6.09697 -0.0195479
rtoes -14.6856 0 0
lowerback -7.66606 2.66233 -1.0057
upperback -2.69506 3.59119 1.18539
thorax 1.3678 1.80345 2.09388
lowerneck -18.2045 -6.51909 -14.9695
upperneck 22.0429 -8.34698 13.809
head 11.438 -3.48411 6.33715
lclavicle -3.76458e-14 8.614e-16 0
lhumerus -47.1336 -3.63256 89.2913
lradius 19.9165 -0 0
lwrist -4.32503 0 0
lhand -7.79607 -22.7347 0.0119807
lfingers 7.12502 0 0
lthumb 18.1046 6.43701 0.0100941
rclavicle -3.76458e-14 8.614e-16 0
rhumerus -41.1095 8.73829 -89.2627
rradius 30.7846 -0 0
rwrist -13.28 0 0
rhand -26.6592 -29.0542 -0.0111819
rfingers 7.12502 0 0
rthumb -0.0909357 -59.0324 -0.0108214
429
root 10.3502 16.9972 24.6247 7.86938 -1.17061 -1.18792
lfemur -38.2951 2.59705 -23.327
ltibia 34.2322 -0 0
lfoot -3.77005 7.47042 0.00320443
ltoes 4.54267 -0 0
rfemur 8.89126 0.0566751 21.1925
rtibia 33.6489 -0 0
rfoot 15.4132 5.59597 -0.0312792
rtoes -14.3391 0 0
lowerback -7.45129 2.64765 -1.13914
upperback -3.07847 3.58195 1.10927
thorax 0.850334 1.80828 2.06534
lowerneck -17.305 -6.31984 -15.1312
upperneck 22.045 -8.15779 13.8588
head 11.2372 -3.43958 6.42163
lclavicle -3.18485e-14 -8.614e-16 0
lhumerus -47.145 -3.42445 89.1099
lradius 19.8642 -0 0
lwrist -4.59839 0 0
lhand -8.44172 -23.1599 0.0191699
lfingers 7.12502 0 0
lthumb 17.4831 6.06479 0.0161513
rclavicle -3.18485e-14 -8.614e-16 0
rhumerus -42.1881 8.96248 -89.5805
rradius 30.569 -0 0
rwrist -13.4132 0 0
rhand -27.0319 -28.3666 -0.0178919
rfingers 7.12502 0 0
rthumb -0.450905 -58.3434 -0.017315
430
root 10.3773 17.0286 24.7678 7.85909 -1.40549 -0.908053
lfemur -37.5147 2.87341 -23.7769
ltibia 33.9427 -0 0
lfoot -4.23803 7.37233 0.003605
ltoes 4.335 -0 0
rfemur 7.27105 -0.0563696 20.6591
rtibia 36.6856 -0 0
rfoot 16.3074 5.09485 -0.03519
rtoes -13.9927 0 0
lowerback -7.2365 2.63347 -1.27263
upperback -3.46186 3.5722 1.03322
thorax 0.332861 1.81284 2.03676
lowerneck -16.4064 -6.1181 -15.2896
upperneck 22.0473 -7.9686 13.9087
head 11.0365 -3.39475 6.50595
lclavicle -2.60513e-14 -2.5842e-15 0
lhumerus -47.1571 -3.21637 88.9286
lradius 19.812 -0 0
lwrist -4.87176 0 0
lhand -9.0874 -23.5853 0.0215665
lfingers 7.12502 0 0
lthumb 16.8616 5.69253 0.0181704
rclavicle -2.60513e-14 -2.5842e-15 0
rhumerus -43.2686 9.18072 -89.9027
rradius 30.3534 -0 0
rwrist -13.5463 0 0
rhand -27.4047 -27.679 -0.0201287
rfingers 7.12502 0 0
rthumb -0.810925 -57.6545 -0.0194797
431
root 10.4043 17.06 24.911 7.84766 -1.64031 -0.628115
lfemur -36.7363 3.15586 -24.2231
ltibia 33.6531 -0 0
lfoot -4.70601 7.27424 0.00320443
ltoes 4.12734 -0 0
rfemur 5.65196 -0.184445 20.1292
rtibia 39.7222 -0 0
rfoot 17.2017 4.59374 -0.0312792
rtoes -13.6463 0 0
lowerback -7.02167 2.61979 -1.40617
upperback -3.84524 3.56195 0.957233
thorax -0.184616 1.81715 2.00814
lowerneck -15.5087 -5.91391 -15.4447
upperneck 22.0498 -7.7794 13.9585
head 10.8359 -3.34963 6.59011
lclavicle -2.0254e-14 -4.307e-15 0
lhumerus -47.1699 -3.00834 88.7472
lradius 19.7598 -0 0
lwrist -5.14512 0 0
lhand -9.73308 -24.0106 0.0191699
lfingers 7.12502 0 0
lthumb 16.2401 5.32026 0.0161513
rclavicle -2.0254e-14 -4.307e-15 0
rhumerus -44.3509 9.39292 -90.2291
rradius 30.1378 -0 0
rwrist -13.6794 0 0
rhand -27.7774 -26.9913 -0.0178919
rfingers 7.12502 0 0
rthumb -1.17095 -56.9655 -0.017315
432
root 10.4313 17.0914 25.0541 7.83508 -1.87508 -0.348095
lfemur -35.9599 3.44433 -24.6655
ltibia 33.3635 -0 0
lfoot -5.17399 7.17617 0.00200273
ltoes 3.91968 -0 0
rfemur 4.0341 -0.327438 19.603
rtibia 42.7588 -0 0
rfoot 18.0959 4.09274 -0.0195479
rtoes -13.2998 0 0
lowerback -6.80681 2.60661 -1.53975
upperback -4.22859 3.55119 0.881319
thorax -0.702097 1.8212 1.97948
lowerneck -14.6119 -5.70733 -15.5966
upperneck 22.0524 -7.59022 14.0083
head 10.6354 -3.30422 6.67411
lclavicle -1.44568e-14 -6.0298e-15 0
lhumerus -47.1833 -2.80035 88.5659
lradius 19.7075 -0 0
lwrist -5.41848 0 0
lhand -10.3787 -24.4358 0.0119807
lfingers 7.12502 0 0
lthumb 15.6186 4.94804 0.0100941
rclavicle -1.44568e-14 -6.0298e-15 0
rhumerus -45.4351 9.59899 -90.5598
rradius 29.9222 -0 0
rwrist -13.8126 0 0
rhand -28.1501 -26.3037 -0.0111819
rfingers 7.12502 0 0
rthumb -1.53092 -56.2765 -0.0108214
433
root 10.4583 17.1228 25.1973 7.82135 -2.10978 -0.0679827
lfemur -35.1855 3.73875 -25.1041
ltibia 33.0739 0 0
lfoot -5.64197 7.0781 0
ltoes 3.71201 0 0
rfemur 2.4176 -0.485222 19.0811
rtibia 45.7955 0 0
rfoot 18.99 3.59199 0
rtoes -12.9534 0 0
lowerback -6.59193 2.59393 -1.67339
upperback -4.61193 3.53992 0.805479
thorax -1.21958 1.82499 1.95078
lowerneck -13.7159 -5.49841 -15.7451
upperneck 22.0552 -7.40103 14.0581
head 10.4349 -3.25851 6.75794
lclavicle -8.65956e-15 -7.7526e-15 0
lhumerus -47.1974 -2.5924 88.3845
lradius 19.6553 0 0
lwrist -5.69184 0 0
lhand -11.0243 -24.861 0
lfingers 7.12502 0 0
lthumb 14.9971 4.57591 0
rclavicle -8.65956e-15 -7.7526e-15 0
rhumerus -46.5212 9.79884 -90.8946
rradius 29.7066 0 0
rwrist -13.9457 0 0
rhand -28.5227 -25.6162 0
rfingers 7.12502 0 0
rthumb -1.89078 -55.5876 0
